:SAMPLES-PER-SECOND 30
:FRAME-RANGE 1-744
:FULLY-SPECIFIED
:DEGREES
721
root  -49.094 37.7303 -0.678495 8.28461 52.0039 7.40257
RightUpLeg  -6.80827 -11.9817 -1.55171
RightLeg  57.0096 17.3512 26.0993
RightFoot  -4.51497 -1.49105 24.1403
RightToes  -5.28216e-011 1.2921e-014 -6.02303e-014
Spine  -2.34764 5.64433 7.11839
Spine1  10.1395 8.25252 -11.39
HEad  -4.62423 67.9949 -16.6639
LeftShoulder1  -0.222237 4.03817 -24.2092
LeftArm  -2.32451 2.45542 -43.1581
LeftForeArm  34.7131 7.84996 -13.1624
LeftHand  -0.0292194 5.32119 -0.470995
RightShoulder  2.6773 5.86151 23.1018
RightArm  -29.5732 8.03027 53.0954
RightForeArm  67.3378 -4.88431 0.414657
RightHand  0.00640907 -5.55761 -15.1188
LeftUpLeg  -25.3663 -12.8156 -8.95642
LeftLeg  23.3396 9.91193 4.99969
LeftFoot  -0.169835 -0.436508 4.47169
LeftToes  -9.4837e-011 -7.11147e-011 -1.07582e-011
722
root  -48.6792 37.7708 0.22659 9.65987 54.5798 9.12344
RightUpLeg  -10.467 -15.5913 -3.58864
RightLeg  61.2701 11.4308 21.0607
RightFoot  -5.4524 -1.038 19.2825
RightToes  -5.28216e-011 1.2921e-014 -6.02303e-014
Spine  -2.26255 5.61091 6.20574
Spine1  10.1547 8.14336 -11.2858
HEad  -5.56751 71.8364 -18.7486
LeftShoulder1  -0.200873 3.97109 -24.0425
LeftArm  -1.16926 -0.691318 -44.808
LeftForeArm  33.1406 7.8866 -13.3471
LeftHand  -0.0277299 6.27497 0.734492
RightShoulder  2.62533 5.53588 23.6148
RightArm  -31.072 5.65541 50.3135
RightForeArm  67.9905 -4.7372 -0.301906
RightHand  0.0280267 -5.71946 -15.3591
LeftUpLeg  -24.1075 -13.4569 -9.66817
LeftLeg  24.2853 8.12943 4.34326
LeftFoot  -1.96569 -0.336333 4.24472
LeftToes  -9.4837e-011 -7.11147e-011 -1.07582e-011
723
root  -48.2665 37.9175 1.13519 10.7243 57.6472 10.2739
RightUpLeg  -13.7958 -17.7847 -4.59598
RightLeg  62.6254 6.14175 12.1984
RightFoot  -7.75678 -0.512128 14.5981
RightToes  -5.28216e-011 1.2921e-014 -6.02303e-014
Spine  -2.49046 5.42866 5.78427
Spine1  10.1107 7.82804 -10.8187
HEad  -6.21665 73.3622 -20.6715
LeftShoulder1  -0.119485 3.70438 -23.7537
LeftArm  -1.29072 -3.49105 -46.7943
LeftForeArm  34.3212 7.16898 -13.0139
LeftHand  -0.0295777 5.13171 1.35596
RightShoulder  2.56369 5.31801 23.649
RightArm  -32.8003 2.72428 48.0524
RightForeArm  68.7098 -4.55772 -1.1872
RightHand  0.0654874 -5.99648 -15.5878
LeftUpLeg  -22.4556 -14.975 -9.63555
LeftLeg  24.2231 6.69299 3.64727
LeftFoot  -3.12501 -0.268189 3.99533
LeftToes  -9.4837e-011 -7.11147e-011 -1.07582e-011
724
root  -47.8877 38.11 2.05075 11.162 60.8307 10.9477
RightUpLeg  -16.3696 -18.1454 -5.4926
RightLeg  62.0544 2.59524 4.78979
RightFoot  -10.3275 -0.146925 8.64554
RightToes  -5.28216e-011 1.2921e-014 -6.02303e-014
Spine  -2.17925 5.0109 6.01649
Spine1  9.63377 7.4275 -10.9914
HEad  -6.06074 73.2525 -21.2956
LeftShoulder1  -0.11385 3.69328 -23.1255
LeftArm  -0.843831 -5.90408 -49.2268
LeftForeArm  33.792 4.61825 -12.9436
LeftHand  -0.0316056 5.03318 2.03524
RightShoulder  2.47062 4.97172 23.77
RightArm  -33.9857 0.0368744 46.2085
RightForeArm  68.2108 -4.47107 -1.79928
RightHand  0.223446 -7.08461 -16.4659
LeftUpLeg  -20.4372 -16.241 -9.21689
LeftLeg  23.823 4.73974 2.76233
LeftFoot  -4.30123 -0.151581 2.88561
LeftToes  -9.4837e-011 -7.11147e-011 -1.07582e-011
725
root  -47.5583 38.2605 2.97096 12.3024 63.8236 11.9957
RightUpLeg  -18.7744 -16.4906 -6.93695
RightLeg  59.7165 0.285952 0.051459
RightFoot  -12.1104 -0.0350893 7.02625
RightToes  -5.28216e-011 1.2921e-014 -6.02303e-014
Spine  -2.38254 4.58731 5.784
Spine1  9.36209 6.9505 -10.8961
HEad  -6.07308 73.0392 -21.6308
LeftShoulder1  -0.107615 3.67387 -22.9653
LeftArm  -0.224917 -8.05052 -51.3312
LeftForeArm  33.8545 1.61526 -12.8562
LeftHand  -0.0370898 4.79281 2.63913
RightShoulder  2.46657 5.00877 23.5782
RightArm  -35.28 -2.52141 44.7834
RightForeArm  68.8525 -4.31646 -2.5501
RightHand  0.162285 -6.77999 -15.0849
LeftUpLeg  -18.9189 -15.9815 -8.83065
LeftLeg  23.3487 1.81323 1.63627
LeftFoot  -5.22864 -0.119778 2.83328
LeftToes  -9.4837e-011 -7.11147e-011 -1.07582e-011
726
root  -47.2522 38.3914 3.89284 13.3366 67.0549 12.9581
RightUpLeg  -20.1752 -13.1451 -8.90068
RightLeg  55.5878 -1.3044 -2.46191
RightFoot  -13.3171 0.00519012 5.53885
RightToes  -5.28216e-011 1.2921e-014 -6.02303e-014
Spine  -2.4507 4.0133 5.77844
Spine1  9.06907 6.3436 -10.8507
HEad  -6.58148 72.6548 -22.3535
LeftShoulder1  -0.0557119 3.49709 -22.6848
LeftArm  2.0182 -10.0864 -53.3957
LeftForeArm  33.1955 -1.68123 -12.9602
LeftHand  -0.0486341 4.50112 3.59166
RightShoulder  2.36348 4.66079 23.574
RightArm  -35.8506 -4.50164 43.3922
RightForeArm  69.4841 -4.23481 -2.88013
RightHand  0.138525 -6.67638 -14.2377
LeftUpLeg  -17.5456 -16.0684 -8.05652
LeftLeg  23.0701 -1.07525 0.565664
LeftFoot  -6.17355 -0.0867827 2.74692
LeftToes  -9.4837e-011 -7.11147e-011 -1.07582e-011
727
root  -47.0077 38.4687 4.84123 14.3924 70.2155 14.1669
RightUpLeg  -20.5228 -9.46181 -11.6242
RightLeg  50.3582 -1.70368 -2.55216
RightFoot  -14.3743 0.000897366 3.71331
RightToes  -5.28216e-011 1.2921e-014 -6.02303e-014
Spine  -1.85518 3.59029 5.41337
Spine1  8.24631 5.80226 -10.5281
HEad  -6.95205 72.1135 -22.8485
LeftShoulder1  0.0939503 2.9714 -22.1417
LeftArm  6.51871 -11.7404 -55.6952
LeftForeArm  31.451 -5.17641 -12.8902
LeftHand  -0.0526792 4.50318 4.2033
RightShoulder  2.15187 3.86397 23.9241
RightArm  -35.3115 -6.32606 41.6841
RightForeArm  69.0943 -4.31761 -2.49012
RightHand  0.121269 -6.5785 -13.7612
LeftUpLeg  -16.3201 -16.4052 -7.05034
LeftLeg  23.1784 -3.75811 -0.487216
LeftFoot  -7.32061 -0.0309694 2.13757
LeftToes  -9.4837e-011 -7.11147e-011 -1.07582e-011
728
root  -46.7761 38.5251 5.76397 16.413 74.194 16.0401
RightUpLeg  -20.1172 -5.87254 -14.6139
RightLeg  44.2899 -1.68562 -2.05655
RightFoot  -14.3347 -0.00104102 3.67806
RightToes  -5.28216e-011 1.2921e-014 -6.02303e-014
Spine  -2.01316 2.80158 5.37175
Spine1  8.09933 4.8321 -9.84495
HEad  -8.12456 71.4734 -24.0182
LeftShoulder1  0.2197 2.51575 -21.7305
LeftArm  11.3408 -13.6669 -58.0471
LeftForeArm  29.7109 -7.93637 -12.4646
LeftHand  -0.0660735 4.11485 4.32477
RightShoulder  2.07722 3.58861 24.0404
RightArm  -34.6491 -7.91247 40.2613
RightForeArm  68.8158 -4.40788 -2.03119
RightHand  0.0173706 -5.70869 -12.9217
LeftUpLeg  -15.7861 -18.0439 -5.46302
LeftLeg  23.4191 -6.01073 -1.77625
LeftFoot  -8.33377 0.0116155 1.46692
LeftToes  -9.4837e-011 -7.11147e-011 -1.07582e-011
729
root  -46.5173 38.5502 6.73272 19.6389 76.9343 19.2365
RightUpLeg  -19.3586 -0.797865 -18.1624
RightLeg  38.3121 -0.0214881 -0.27819
RightFoot  -13.0745 -0.0355023 3.51256
RightToes  -5.28216e-011 1.2921e-014 -6.02303e-014
Spine  -2.45683 2.62077 5.18949
Spine1  8.34438 4.57724 -9.42331
HEad  -7.80464 70.9728 -23.5324
LeftShoulder1  0.32511 2.11115 -21.0749
LeftArm  15.6255 -15.1772 -60.5669
LeftForeArm  28.5017 -10.095 -11.8453
LeftHand  -0.0625235 4.25492 4.43587
RightShoulder  2.02173 3.34091 24.3387
RightArm  -34.0421 -9.07668 38.96
RightForeArm  68.0107 -4.50594 -1.64145
RightHand  0.126481 -6.65596 -13.4529
LeftUpLeg  -15.1659 -19.4517 -4.1573
LeftLeg  23.5481 -7.34911 -2.5822
LeftFoot  -9.35822 0.0408561 0.889198
LeftToes  -9.4837e-011 -7.11147e-011 -1.07582e-011
